<svg xmlns="http://www.w3.org/2000/svg" width="429" height="308" fill="none" viewBox="0 0 429 308">
  <ellipse fill="#5DAAF1" cx="52.954" cy="86.34" rx="42.5" ry="46" transform="rotate(14.995 52.954 86.34)"/>
  <path fill="#5DAAF1" d="m64.373 41.777 35.74 9.573-23.804 88.867-35.74-9.573z"/>
  <rect fill="#5DAAF1" width="89" height="109" x="79.397" y="28.202" rx="26" transform="rotate(14.995 79.397 28.202)"/>
  <rect fill="#5DAAF1" width="88" height="109" x="104.511" y="34.929" rx="41" transform="rotate(14.995 104.511 34.929)"/>
  <circle fill="#fff" cx="102.759" cy="57.343" r="7.5" transform="rotate(14.995 102.759 57.343)"/>
  <path fill="#5DAAF1" d="M138.713 51.92c-.708-2.633-.535-9.472 5.812-15.768 7.934-7.87 13.773-2.974 9.545 5.889-3.382 7.09-7.816 15.009-9.61 18.082l-5.747-8.203Z"/>
  <rect fill="#5DAAF1" width="277" height="144.529" x="159.042" y="50.663" rx="58" transform="rotate(13 159.042 50.663)"/>
  <path fill="#5DAAF1" d="m164.305 126 248.242 57.311-16.646 72.104-248.242-57.312z"/>
  <path fill="#5DAAF1" d="M377 159h40v92h-40zM70 102.825 141.012 45l77.642 95.347-71.012 57.826z"/>
  <path fill="#5DAAF1" d="m151.638 49.079 112.866 26.057-15.971 69.18-112.866-26.057z"/>
  <path fill="#5DAAF1" d="m147.622 46.516 28.984 9.675-22.482 67.347-28.984-9.675zm236.164 192.862h33.319v67.92h-33.319zm0 67.92v-75.609L362 224l21.786 83.298Zm-245.189-29.614 35.092-92.309-23.029-19.498-12.063 111.807ZM174 283.5l12.562-106.137 29.393-6.821L174 283.5Z"/>
  <path fill="#5DAAF1" d="M200.701 113.82 174 283.5l-35.229-6.32 61.93-163.36Z"/>
  <path fill="#A770EA" d="m103.459 155.41-48.84 70.804 15.787 23.485 63.822-54.251-30.769-40.038Zm199.156 108.147h28.844v36.191h-28.844z"/>
  <path fill="#A770EA" d="m302.615 299.748 28.407-52.007L293 239l9.615 60.748Z"/>
  <path fill="#A770EA" d="m331.459 299.748 20.541-47.2-40.207-9.178 19.666 56.378Z"/>
</svg>