<svg xmlns="http://www.w3.org/2000/svg" width="601" height="348" fill="none" viewBox="0 0 601 348">
  <path fill="#5DAAF1" d="M175.56 294.8c-4.813 0-9.12-.76-12.92-2.28-3.8-1.267-7.093-3.547-9.88-6.84-2.533-3.547-4.94-8.487-7.22-14.82l-30.02-84.74c-1.52-4.56-3.293-9.753-5.32-15.58a829.38 829.38 0 0 0-6.46-18.62c-2.027-6.333-3.927-12.287-5.7-17.86a715.6 715.6 0 0 1-3.8-14.44h-1.52c-1.773 9.12-4.56 19.633-8.36 31.54-3.547 11.907-6.967 22.927-10.26 33.06L39.14 291H3.42L77.9 86.56 68.02 61.1c-4.053-11.147-9.88-19.507-17.48-25.08-7.347-5.573-17.1-8.36-29.26-8.36-4.56 0-8.613.253-12.16.76A341.552 341.552 0 0 0 0 29.94V3.34a33.21 33.21 0 0 1 7.22-1.52A91.22 91.22 0 0 1 15.96.68C19 .427 22.167.3 25.46.3c13.173 0 24.447 2.153 33.82 6.46 9.627 4.307 17.86 11.02 24.7 20.14 7.093 9.12 13.3 20.9 18.62 35.34l72.2 191.9c1.52 3.547 2.787 6.333 3.8 8.36 1.013 1.773 2.153 3.04 3.42 3.8 1.52.76 3.167 1.14 4.94 1.14 2.027 0 3.927-.253 5.7-.76 1.773-.507 3.293-.887 4.56-1.14v24.7c-1.773.76-3.8 1.52-6.08 2.28a33.195 33.195 0 0 1-7.22 1.52c-2.533.507-5.32.76-8.36.76Zm237.07-66.12h-31.92v-36.86c0-8.107 1.266-14.693 3.8-19.76 2.533-5.067 5.953-9.5 10.26-13.3 4.306-4.053 9.12-7.727 14.44-11.02 5.32-3.547 10.893-7.6 16.72-12.16 9.12-6.84 15.833-14.313 20.14-22.42 4.306-8.107 6.46-16.847 6.46-26.22 0-6.333-1.14-12.287-3.42-17.86-2.027-5.573-5.067-10.26-9.12-14.06-3.547-3.547-7.854-6.333-12.92-8.36-5.067-2.027-10.64-3.04-16.72-3.04-8.614 0-15.834 1.14-21.66 3.42-5.827 2.28-10.64 5.7-14.44 10.26-2.787 3.04-5.194 6.587-7.22 10.64-1.774 3.8-3.42 8.233-4.94 13.3a229.35 229.35 0 0 0-14.06-4.94l-13.68-5.32c1.773-5.573 4.306-11.653 7.6-18.24 3.293-6.84 7.853-13.173 13.68-19 5.826-5.827 13.173-10.767 22.04-14.82 8.866-4.053 19.76-6.08 32.68-6.08 10.386 0 20.14 2.027 29.26 6.08 9.12 3.8 16.973 9.12 23.56 15.96 6.84 6.587 12.16 14.44 15.96 23.56 3.8 8.867 5.7 18.367 5.7 28.5 0 14.187-3.42 26.6-10.26 37.24-6.587 10.387-15.58 19.887-26.98 28.5a785.62 785.62 0 0 1-11.4 7.98 75.571 75.571 0 0 0-11.4 8.74c-3.547 3.547-6.46 7.727-8.74 12.54-2.28 4.56-3.42 10.26-3.42 17.1v29.64Zm3.04 42.56c0 5.827-2.027 10.64-6.08 14.44-4.054 3.547-8.487 5.32-13.3 5.32-5.067 0-9.627-1.773-13.68-5.32-4.054-3.8-6.08-8.613-6.08-14.44s2.026-10.64 6.08-14.44c4.053-3.8 8.613-5.7 13.68-5.7 4.813 0 9.246 1.9 13.3 5.7 4.053 3.8 6.08 8.613 6.08 14.44Z"/>
  <path fill="#A770EA" d="M307.251 347.62h-23.94c-5.827 0-11.527-.127-17.1-.38-5.32-.253-10.007-1.773-14.06-4.56-4.307-2.533-7.727-6.84-10.26-12.92-2.28-6.08-3.42-15.073-3.42-26.98v-57.76c0-5.067-.38-10.513-1.14-16.34-.76-6.08-2.28-11.653-4.56-16.72-2.28-5.067-5.447-9.247-9.5-12.54-3.8-3.547-8.74-5.447-14.82-5.7v-30.78c6.08-.253 11.02-2.027 14.82-5.32 4.053-3.547 7.22-7.853 9.5-12.92 2.28-5.067 3.8-10.513 4.56-16.34.76-6.08 1.14-11.653 1.14-16.72V52.36c0-11.653 1.14-20.52 3.42-26.6 2.533-6.333 5.826-10.893 9.88-13.68 4.053-2.533 8.74-3.927 14.06-4.18 5.573-.253 11.4-.38 17.48-.38h23.94V38.3h-16.72c-3.8 0-6.967.507-9.5 1.52-2.534 1.013-4.56 2.913-6.08 5.7-1.52 3.04-2.66 7.093-3.42 12.16-.507 5.067-.76 11.653-.76 19.76v49.02c0 7.853-.887 14.693-2.66 20.52-1.52 5.573-3.547 10.387-6.08 14.44-2.534 4.053-5.194 7.473-7.98 10.26-2.787 2.533-5.447 4.56-7.98 6.08 2.533 1.52 5.193 3.673 7.98 6.46 2.786 2.533 5.446 5.827 7.98 9.88 2.533 4.307 4.56 9.247 6.08 14.82 1.773 5.573 2.66 12.16 2.66 19.76v49.02c0 8.107.253 14.693.76 19.76.76 5.32 1.9 9.373 3.42 12.16 1.52 2.787 3.546 4.687 6.08 5.7 2.533 1.013 5.7 1.52 9.5 1.52h16.72v30.78Zm218.675 0h-23.94v-30.78h16.72c3.8 0 6.967-.507 9.5-1.52 2.533-1.013 4.56-2.913 6.08-5.7 1.52-2.787 2.533-6.84 3.04-12.16.76-5.067 1.14-11.653 1.14-19.76v-49.02c0-7.6.76-14.187 2.28-19.76 1.773-5.827 3.927-10.767 6.46-14.82 2.533-4.053 5.193-7.347 7.98-9.88 3.04-2.787 5.7-4.94 7.98-6.46-2.533-1.52-5.32-3.547-8.36-6.08-2.787-2.787-5.32-6.207-7.6-10.26-2.533-4.053-4.687-8.867-6.46-14.44-1.52-5.827-2.28-12.667-2.28-20.52V77.44c0-8.107-.38-14.693-1.14-19.76-.507-5.067-1.52-9.12-3.04-12.16-1.52-2.787-3.547-4.687-6.08-5.7s-5.7-1.52-9.5-1.52h-16.72V7.52h23.94c5.827 0 11.4.127 16.72.38 5.573.253 10.513 1.647 14.82 4.18 4.053 2.787 7.22 7.22 9.5 13.3 2.533 6.08 3.8 15.073 3.8 26.98v59.28c0 5.067.38 10.64 1.14 16.72 1.013 5.827 2.66 11.273 4.94 16.34 2.027 5.067 4.94 9.373 8.74 12.92 4.053 3.293 9.12 5.067 15.2 5.32v30.78c-6.08.253-11.147 2.153-15.2 5.7-3.8 3.293-6.713 7.473-8.74 12.54-2.28 5.067-3.927 10.64-4.94 16.72-.76 5.827-1.14 11.273-1.14 16.34v57.76c0 11.907-1.267 20.9-3.8 26.98-2.28 6.08-5.447 10.387-9.5 12.92-4.053 2.787-8.867 4.307-14.44 4.56-5.32.253-11.02.38-17.1.38Z"/>
</svg>
