<svg xmlns="http://www.w3.org/2000/svg" width="1567" height="386" fill="none" viewBox="0 0 1567 386">
  <path fill="#5DAAF1" d="M175.56 294.8c-4.813 0-9.12-.76-12.92-2.28-3.8-1.267-7.093-3.547-9.88-6.84-2.533-3.547-4.94-8.487-7.22-14.82l-30.02-84.74c-1.52-4.56-3.293-9.753-5.32-15.58a829.38 829.38 0 0 0-6.46-18.62c-2.027-6.333-3.927-12.287-5.7-17.86a715.6 715.6 0 0 1-3.8-14.44h-1.52c-1.773 9.12-4.56 19.633-8.36 31.54-3.547 11.907-6.967 22.927-10.26 33.06L39.14 291H3.42L77.9 86.56 68.02 61.1c-4.053-11.147-9.88-19.507-17.48-25.08-7.347-5.573-17.1-8.36-29.26-8.36-4.56 0-8.613.253-12.16.76A341.552 341.552 0 0 0 0 29.94V3.34a33.21 33.21 0 0 1 7.22-1.52A91.22 91.22 0 0 1 15.96.68C19 .427 22.167.3 25.46.3c13.173 0 24.447 2.153 33.82 6.46 9.627 4.307 17.86 11.02 24.7 20.14 7.093 9.12 13.3 20.9 18.62 35.34l72.2 191.9c1.52 3.547 2.787 6.333 3.8 8.36 1.013 1.773 2.153 3.04 3.42 3.8 1.52.76 3.167 1.14 4.94 1.14 2.027 0 3.927-.253 5.7-.76 1.773-.507 3.293-.887 4.56-1.14v24.7c-1.773.76-3.8 1.52-6.08 2.28a33.195 33.195 0 0 1-7.22 1.52c-2.533.507-5.32.76-8.36.76Zm337.77-3.8h-56.62v-15.2c-.254.76-1.52 2.153-3.8 4.18-2.28 2.027-5.447 4.053-9.5 6.08-4.307 2.28-9.374 4.18-15.2 5.7-5.827 1.773-12.414 2.66-19.76 2.66-10.64 0-20.647-1.9-30.02-5.7-9.374-4.053-17.48-9.5-24.32-16.34s-12.287-14.82-16.34-23.94c-3.8-9.12-5.7-18.747-5.7-28.88s1.9-19.633 5.7-28.5c4.053-9.12 9.5-17.1 16.34-23.94s14.946-12.16 24.32-15.96c9.373-4.053 19.38-6.08 30.02-6.08 6.333 0 12.286.887 17.86 2.66 5.826 1.773 10.893 3.8 15.2 6.08 4.306 2.28 7.346 4.18 9.12 5.7 1.773 1.267 2.913 2.28 3.42 3.04-.507-2.027-.887-4.56-1.14-7.6V36.02h-25.08V6h56.62v254.98h28.88V291ZM408.45 175.86c-6.587 0-12.667 1.14-18.24 3.42-5.574 2.28-10.387 5.32-14.44 9.12-3.547 4.053-6.46 8.74-8.74 14.06-2.027 5.067-3.04 10.767-3.04 17.1 0 6.587 1.266 12.793 3.8 18.62 2.533 5.827 5.953 10.64 10.26 14.44 3.8 3.547 8.233 6.333 13.3 8.36 5.32 1.773 11.02 2.66 17.1 2.66 6.08 0 11.653-.887 16.72-2.66 5.066-2.027 9.626-4.813 13.68-8.36 4.306-3.8 7.726-8.613 10.26-14.44 2.533-5.827 3.8-12.033 3.8-18.62 0-7.093-1.394-13.553-4.18-19.38-2.534-5.827-6.08-10.64-10.64-14.44-3.8-3.04-8.234-5.447-13.3-7.22-5.067-1.773-10.514-2.66-16.34-2.66Zm207.432 0c-7.093 0-13.553 1.267-19.38 3.8-5.573 2.28-10.387 5.573-14.44 9.88-3.04 3.547-5.573 7.6-7.6 12.16-1.773 4.56-2.787 9.5-3.04 14.82a5411.233 5411.233 0 0 0 35.34-12.92 2042.525 2042.525 0 0 1 35.72-13.3c-3.547-4.307-7.6-7.727-12.16-10.26-4.307-2.787-9.12-4.18-14.44-4.18Zm48.26 98.42c-6.333 6.333-13.553 11.273-21.66 14.82-8.107 3.547-16.973 5.32-26.6 5.32-10.64 0-20.647-1.9-30.02-5.7-9.12-4.053-17.1-9.5-23.94-16.34s-12.287-14.693-16.34-23.56c-3.8-9.12-5.7-18.873-5.7-29.26 0-10.133 1.9-19.76 5.7-28.88 4.053-9.12 9.5-17.1 16.34-23.94 6.84-6.587 14.82-11.78 23.94-15.58 9.373-4.053 19.38-6.08 30.02-6.08 7.853 0 15.327 1.647 22.42 4.94 7.347 3.04 13.933 7.347 19.76 12.92 5.573 5.573 10.513 12.287 14.82 20.14 4.307 7.6 7.6 15.96 9.88 25.08l-51.68 19a11307.85 11307.85 0 0 1-51.3 19c3.8 5.32 8.74 9.627 14.82 12.92 6.333 3.04 13.427 4.56 21.28 4.56 5.827 0 11.147-1.013 15.96-3.04 4.813-2.027 9.12-5.067 12.92-9.12l19.38 22.8ZM892.216 291h-56.62v-15.2c-.253.76-1.52 2.153-3.8 4.18-2.28 2.027-5.446 4.053-9.5 6.08-4.306 2.28-9.373 4.18-15.2 5.7-5.826 1.773-12.413 2.66-19.76 2.66-10.64 0-20.646-1.9-30.02-5.7-9.373-4.053-17.48-9.5-24.32-16.34s-12.286-14.82-16.34-23.94c-3.8-9.12-5.7-18.747-5.7-28.88s1.9-19.633 5.7-28.5c4.054-9.12 9.5-17.1 16.34-23.94s14.947-12.16 24.32-15.96c9.374-4.053 19.38-6.08 30.02-6.08 6.334 0 12.287.887 17.86 2.66 5.827 1.773 10.894 3.8 15.2 6.08 4.307 2.28 7.347 4.18 9.12 5.7 1.774 1.267 2.914 2.28 3.42 3.04-.506-2.027-.886-4.56-1.14-7.6V36.02h-25.08V6h56.62v254.98h28.88V291Zm-104.88-115.14c-6.586 0-12.666 1.14-18.24 3.42-5.573 2.28-10.386 5.32-14.44 9.12-3.546 4.053-6.46 8.74-8.74 14.06-2.026 5.067-3.04 10.767-3.04 17.1 0 6.587 1.267 12.793 3.8 18.62 2.534 5.827 5.954 10.64 10.26 14.44 3.8 3.547 8.234 6.333 13.3 8.36 5.32 1.773 11.02 2.66 17.1 2.66 6.08 0 11.654-.887 16.72-2.66 5.067-2.027 9.627-4.813 13.68-8.36 4.307-3.8 7.727-8.613 10.26-14.44 2.534-5.827 3.8-12.033 3.8-18.62 0-7.093-1.393-13.553-4.18-19.38-2.533-5.827-6.08-10.64-10.64-14.44-3.8-3.04-8.233-5.447-13.3-7.22-5.066-1.773-10.513-2.66-16.34-2.66Zm267.474 78.66c-5.07 12.16-13.3 21.913-24.7 29.26-11.15 7.093-23.56 10.64-37.241 10.64-14.947 0-26.727-3.927-35.34-11.78-8.614-7.853-13.174-18.113-13.68-30.78v-73.34h-25.08V148.5h56.62v88.92c.506 6.84 2.913 12.793 7.22 17.86 4.56 4.813 11.653 7.473 21.281 7.98 6.59 0 12.79-1.14 18.62-3.42 6.08-2.28 11.4-5.447 15.96-9.5 4.56-4.053 8.23-8.867 11.02-14.44 2.79-5.573 4.18-11.653 4.18-18.24v-39.14h-25.08V148.5h56.62v115.9h23.56V291h-55.1v-19.38l1.14-17.1Zm204.18 23.56c-6.59 5.067-13.94 9.12-22.04 12.16-7.86 2.787-16.34 4.18-25.46 4.18-10.64 0-20.65-1.9-30.02-5.7-9.12-4.053-17.1-9.5-23.94-16.34s-12.29-14.693-16.34-23.56c-3.8-8.867-5.7-18.62-5.7-29.26 0-10.133 1.9-19.76 5.7-28.88 4.05-9.12 9.5-16.973 16.34-23.56 6.84-6.84 14.82-12.16 23.94-15.96 9.37-4.053 19.38-6.08 30.02-6.08 9.37 0 18.11 1.52 26.22 4.56 8.1 2.787 15.45 6.713 22.04 11.78v44.08h-28.12v-25.46c-3.04-1.52-6.34-2.533-9.88-3.04-3.3-.76-6.72-1.14-10.26-1.14-6.08 0-11.78 1.013-17.1 3.04-5.07 1.773-9.5 4.307-13.3 7.6a42.764 42.764 0 0 0-10.64 14.44c-2.28 5.573-3.42 11.78-3.42 18.62 0 6.333 1.14 12.287 3.42 17.86 2.28 5.573 5.44 10.387 9.5 14.44 4.05 3.547 8.74 6.46 14.06 8.74 5.32 2.027 11.14 3.04 17.48 3.04 5.57 0 10.64-.76 15.2-2.28 4.81-1.52 9.24-3.927 13.3-7.22l19 23.94Zm103.53-102.22c-7.09 0-13.55 1.267-19.38 3.8-5.57 2.28-10.38 5.573-14.44 9.88-3.04 3.547-5.57 7.6-7.6 12.16-1.77 4.56-2.78 9.5-3.04 14.82 11.91-4.307 23.69-8.613 35.34-12.92 11.91-4.56 23.82-8.993 35.72-13.3-3.54-4.307-7.6-7.727-12.16-10.26-4.3-2.787-9.12-4.18-14.44-4.18Zm48.26 98.42c-6.33 6.333-13.55 11.273-21.66 14.82-8.1 3.547-16.97 5.32-26.6 5.32-10.64 0-20.64-1.9-30.02-5.7-9.12-4.053-17.1-9.5-23.94-16.34s-12.28-14.693-16.34-23.56c-3.8-9.12-5.7-18.873-5.7-29.26 0-10.133 1.9-19.76 5.7-28.88 4.06-9.12 9.5-17.1 16.34-23.94 6.84-6.587 14.82-11.78 23.94-15.58 9.38-4.053 19.38-6.08 30.02-6.08 7.86 0 15.33 1.647 22.42 4.94 7.35 3.04 13.94 7.347 19.76 12.92 5.58 5.573 10.52 12.287 14.82 20.14 4.31 7.6 7.6 15.96 9.88 25.08-17.22 6.333-34.45 12.667-51.68 19-16.97 6.333-34.07 12.667-51.3 19 3.8 5.32 8.74 9.627 14.82 12.92 6.34 3.04 13.43 4.56 21.28 4.56 5.83 0 11.15-1.013 15.96-3.04 4.82-2.027 9.12-5.067 12.92-9.12l19.38 22.8Z"/>
  <path fill="#A770EA" d="M307.251 347.62h-23.94c-5.827 0-11.527-.127-17.1-.38-5.32-.253-10.007-1.773-14.06-4.56-4.307-2.533-7.727-6.84-10.26-12.92-2.28-6.08-3.42-15.073-3.42-26.98v-57.76c0-5.067-.38-10.513-1.14-16.34-.76-6.08-2.28-11.653-4.56-16.72-2.28-5.067-5.447-9.247-9.5-12.54-3.8-3.547-8.74-5.447-14.82-5.7v-30.78c6.08-.253 11.02-2.027 14.82-5.32 4.053-3.547 7.22-7.853 9.5-12.92 2.28-5.067 3.8-10.513 4.56-16.34.76-6.08 1.14-11.653 1.14-16.72V52.36c0-11.653 1.14-20.52 3.42-26.6 2.533-6.333 5.826-10.893 9.88-13.68 4.053-2.533 8.74-3.927 14.06-4.18 5.573-.253 11.4-.38 17.48-.38h23.94V38.3h-16.72c-3.8 0-6.967.507-9.5 1.52-2.534 1.013-4.56 2.913-6.08 5.7-1.52 3.04-2.66 7.093-3.42 12.16-.507 5.067-.76 11.653-.76 19.76v49.02c0 7.853-.887 14.693-2.66 20.52-1.52 5.573-3.547 10.387-6.08 14.44-2.534 4.053-5.194 7.473-7.98 10.26-2.787 2.533-5.447 4.56-7.98 6.08 2.533 1.52 5.193 3.673 7.98 6.46 2.786 2.533 5.446 5.827 7.98 9.88 2.533 4.307 4.56 9.247 6.08 14.82 1.773 5.573 2.66 12.16 2.66 19.76v49.02c0 8.107.253 14.693.76 19.76.76 5.32 1.9 9.373 3.42 12.16 1.52 2.787 3.546 4.687 6.08 5.7 2.533 1.013 5.7 1.52 9.5 1.52h16.72v30.78Zm1172.389 0h-23.94v-30.78h16.72c3.8 0 6.96-.507 9.5-1.52 2.53-1.013 4.56-2.913 6.08-5.7 1.52-2.787 2.53-6.84 3.04-12.16.76-5.067 1.14-11.653 1.14-19.76v-49.02c0-7.6.76-14.187 2.28-19.76 1.77-5.827 3.92-10.767 6.46-14.82 2.53-4.053 5.19-7.347 7.98-9.88 3.04-2.787 5.7-4.94 7.98-6.46-2.54-1.52-5.32-3.547-8.36-6.08-2.79-2.787-5.32-6.207-7.6-10.26-2.54-4.053-4.69-8.867-6.46-14.44-1.52-5.827-2.28-12.667-2.28-20.52V77.44c0-8.107-.38-14.693-1.14-19.76-.51-5.067-1.52-9.12-3.04-12.16-1.52-2.787-3.55-4.687-6.08-5.7-2.54-1.013-5.7-1.52-9.5-1.52h-16.72V7.52h23.94c5.82 0 11.4.127 16.72.38 5.57.253 10.51 1.647 14.82 4.18 4.05 2.787 7.22 7.22 9.5 13.3 2.53 6.08 3.8 15.073 3.8 26.98v59.28c0 5.067.38 10.64 1.14 16.72 1.01 5.827 2.66 11.273 4.94 16.34 2.02 5.067 4.94 9.373 8.74 12.92 4.05 3.293 9.12 5.067 15.2 5.32v30.78c-6.08.253-11.15 2.153-15.2 5.7-3.8 3.293-6.72 7.473-8.74 12.54-2.28 5.067-3.93 10.64-4.94 16.72-.76 5.827-1.14 11.273-1.14 16.34v57.76c0 11.907-1.27 20.9-3.8 26.98-2.28 6.08-5.45 10.387-9.5 12.92-4.06 2.787-8.87 4.307-14.44 4.56-5.32.253-11.02.38-17.1.38Z"/>
</svg>
